:SAMPLES-PER-SECOND 30
:FULLY-SPECIFIED
:DEGREES
114
root  -58.0755 40.7547 -0.657691 -10.1701 -83.3186 9.03238
RightUpLeg  -14.1469 -8.05086 -3.0082
RightLeg  9.09084 -7.79343 4.07598
RightFoot  6.93522 1.0774 -6.3919
RightToes  0.00048216 0.542163 -0.142577
Spine  12.4293 -0.395169 5.37527
Spine1  4.58704 -0.157183 0.478535
HEad  -8.38496 -2.90736 -3.7053
LeftShoulder1  8.65974 -12.0867 -48.485
LeftArm  -13.6734 17.1102 -27.4761
LeftForeArm  25.4058 -10.4646 -4.15138
LeftHand  -0.25398 0.0180481 5.50724
RightShoulder  5.50397 8.91791 38.255
RightArm  3.91821 -11.1154 35.6596
RightForeArm  -6.83919 34.6463 8.15211
RightHand  -1.74549 4.20054 -21.2364
LeftUpLeg  -23.3312 8.06554 -2.24661
LeftLeg  38.6543 5.71565 5.32481
LeftFoot  -10.7435 0.08717 -4.25992
LeftToes  1.06248e-005 4.65856e-005 -8.185e-006
115
root  -58.8857 40.9013 -0.506275 -7.92786 -84.3472 6.53534
RightUpLeg  -12.1648 -7.93452 -2.67876
RightLeg  8.28551 -6.96706 4.30474
RightFoot  6.01603 1.06094 -6.66869
RightToes  0.00048216 0.542163 -0.142577
Spine  11.4598 0.107892 6.58036
Spine1  5.26065 0.70485 -0.766594
HEad  -9.43528 -3.36759 -3.70527
LeftShoulder1  8.53305 -11.9719 -48.1263
LeftArm  -15.0414 18.029 -27.0846
LeftForeArm  23.1481 -9.61117 -3.71879
LeftHand  -0.25398 0.0180481 5.50724
RightShoulder  5.59304 9.03389 38.5432
RightArm  4.18305 -10.5468 35.4343
RightForeArm  -6.59518 33.9819 7.95166
RightHand  -1.62396 3.84304 -20.539
LeftUpLeg  -19.9901 9.21357 -1.76373
LeftLeg  26.4946 3.71539 2.42089
LeftFoot  -9.42794 0.157273 -5.70371
LeftToes  1.06248e-005 4.65856e-005 -8.185e-006
116
root  -59.6746 40.9722 -0.30278 2.82562 -85.7204 -4.92975
RightUpLeg  -9.95549 -7.46654 -1.87015
RightLeg  7.83845 -6.16135 4.4618
RightFoot  4.91749 0.966562 -6.5164
RightToes  0.00048216 0.542163 -0.142577
Spine  10.198 0.446022 8.12632
Spine1  6.60222 1.43482 -1.928
HEad  -9.89224 -2.92607 -3.86109
LeftShoulder1  8.20586 -11.62 -47.3399
LeftArm  -16.7716 18.7826 -26.984
LeftForeArm  21.4892 -9.17572 -3.08308
LeftHand  -0.25398 0.0180481 5.50724
RightShoulder  5.7667 9.308 38.9262
RightArm  4.45837 -9.77251 34.8832
RightForeArm  -6.41571 32.0808 7.42346
RightHand  -1.54107 3.61731 -19.9921
LeftUpLeg  -15.9676 10.6244 -0.749323
LeftLeg  16.9002 1.61235 0.538377
LeftFoot  -5.63214 0.270783 -5.05819
LeftToes  1.06248e-005 4.65856e-005 -8.185e-006
117
root  -60.4122 41.0392 -0.073083 21.36 -86.4958 -24.0893
RightUpLeg  -7.98184 -6.89993 -1.08672
RightLeg  7.45891 -5.52298 4.58424
RightFoot  4.2646 0.815983 -5.73203
RightToes  0.00048216 0.542163 -0.142577
Spine  8.79759 0.515501 8.80491
Spine1  7.76516 1.60538 -2.23415
HEad  -9.71085 -1.80984 -4.13775
LeftShoulder1  7.68854 -11.016 -46.174
LeftArm  -18.0956 19.3245 -26.8459
LeftForeArm  20.1647 -8.61839 -2.53053
LeftHand  -0.25398 0.0180481 5.50724
RightShoulder  5.92731 9.55148 39.3019
RightArm  4.44712 -9.00027 33.8183
RightForeArm  -5.95954 29.3426 6.69183
RightHand  -1.53755 3.82261 -19.5264
LeftUpLeg  -12.6203 9.52712 0.802753
LeftLeg  11.4795 3.22793 -0.775678
LeftFoot  -0.851138 0.0596394 -0.669872
LeftToes  1.06248e-005 4.65856e-005 -8.185e-006
118
root  -61.0611 41.1065 0.110524 32.6547 -86.28 -35.7139
RightUpLeg  -6.73071 -6.75016 -0.64307
RightLeg  7.82092 -5.3567 4.40698
RightFoot  3.33691 0.702248 -5.27553
RightToes  0.00048216 0.542163 -0.142577
Spine  7.99664 0.57362 7.38478
Spine1  7.5214 1.09693 -0.464368
HEad  -9.18333 -0.920459 -4.35299
LeftShoulder1  7.36419 -10.6749 -45.2633
LeftArm  -18.656 19.6739 -25.8597
LeftForeArm  18.6248 -7.56001 -2.12018
LeftHand  -0.25398 0.0180481 5.50724
RightShoulder  5.86317 9.55609 38.8135
RightArm  2.73566 -9.25532 32.6798
RightForeArm  -5.28602 26.7807 6.03448
RightHand  -1.57646 4.26174 -19.1358
LeftUpLeg  -10.7375 7.75805 1.68094
LeftLeg  9.81014 5.28238 -1.45505
LeftFoot  2.21676 -0.454576 3.80128
LeftToes  1.06248e-005 4.65856e-005 -8.185e-006
119
root  -61.5918 41.1548 0.212916 30.1811 -85.9443 -33.3822
RightUpLeg  -6.40847 -8.24447 -0.581992
RightLeg  9.4535 -4.36816 3.80737
RightFoot  1.9748 0.607706 -5.07994
RightToes  0.00048216 0.542163 -0.142577
Spine  8.1816 0.756507 4.29421
Spine1  6.06055 0.493163 2.14104
HEad  -9.08408 -0.437323 -3.82116
LeftShoulder1  7.12943 -10.6351 -43.8683
LeftArm  -18.9011 19.7425 -24.0998
LeftForeArm  17.3866 -6.58545 -1.77938
LeftHand  -0.25398 0.0180481 5.50724
RightShoulder  5.64528 9.38295 37.775
RightArm  -0.915359 -10.6388 31.4851
RightForeArm  -5.01017 25.0478 5.6167
RightHand  -1.61134 4.52995 -19.0424
LeftUpLeg  -9.85207 7.72631 1.66834
LeftLeg  10.0241 4.98077 -1.51079
LeftFoot  2.56846 -0.629472 5.03319
LeftToes  1.06248e-005 4.65856e-005 -8.185e-006
120
root  -62.0217 41.1726 0.309661 28.3072 -86.2708 -31.4892
RightUpLeg  -7.33914 -12.4149 -0.472156
RightLeg  12.6002 0.00818018 2.88042
RightFoot  0.962908 0.332123 -3.02016
RightToes  0.00048216 0.542163 -0.142577
Spine  8.73761 0.918973 1.82747
Spine1  4.74092 0.440679 2.70323
HEad  -9.77122 0.147806 -1.93196
LeftShoulder1  6.43321 -10.1616 -40.7717
LeftArm  -19.4698 19.2793 -22.3419
LeftForeArm  16.7741 -6.49638 -1.47252
LeftHand  -0.25398 0.0180481 5.50724
RightShoulder  5.48466 9.16913 37.2554
RightArm  -4.59781 -11.8596 29.6504
RightForeArm  -5.40313 23.6814 5.34863
RightHand  -1.62592 4.56513 -19.1449
LeftUpLeg  -9.18733 8.08749 1.72706
LeftLeg  10.295 4.7892 -1.93352
LeftFoot  1.5769 -0.505564 4.37822
LeftToes  1.06248e-005 4.65856e-005 -8.185e-006
121
root  -62.3987 41.1507 0.479875 37.2792 -87.3349 -40.2645
RightUpLeg  -9.4851 -16.2093 -0.27842
RightLeg  17.0083 5.51205 2.10325
RightFoot  0.194848 -0.173983 1.7712
RightToes  0.00048216 0.542163 -0.142577
Spine  9.07099 1.18423 1.007
Spine1  3.80996 0.893712 1.72941
HEad  -10.7776 0.663738 -0.558623
LeftShoulder1  5.71738 -9.38003 -38.1894
LeftArm  -20.2931 18.3385 -19.5763
LeftForeArm  16.1467 -7.29835 -1.20123
LeftHand  -0.25398 0.0180481 5.50724
RightShoulder  5.09589 8.75147 35.613
RightArm  -7.74674 -12.5302 27.6377
RightForeArm  -5.14322 21.8177 5.14157
RightHand  -1.60601 4.55551 -18.9355
LeftUpLeg  -8.61716 8.16911 2.0503
LeftLeg  10.3781 5.95386 -2.82707
LeftFoot  0.693346 -0.459719 4.32491
LeftToes  1.06248e-005 4.65856e-005 -8.185e-006
122
root  -62.7556 41.111 0.694526 57.1791 -88.4818 -59.9192
RightUpLeg  -11.7001 -14.4455 -1.34448
RightLeg  21.482 5.15775 1.94413
RightFoot  -1.39228 -0.548531 6.1849
RightToes  0.00048216 0.542163 -0.142577
Spine  9.46418 1.28584 1.21497
Spine1  2.47322 1.50537 -0.604116
HEad  -11.4056 1.01024 0.494945
LeftShoulder1  4.88627 -8.41019 -34.931
LeftArm  -21.6681 17.6202 -16.8072
LeftForeArm  16.1328 -8.60667 -0.812745
LeftHand  -0.25398 0.0180481 5.50724
RightShoulder  4.74155 8.35373 34.0345
RightArm  -10.9426 -12.9531 24.4913
RightForeArm  -4.48421 19.4073 5.1466
RightHand  -1.5724 4.59705 -18.481
LeftUpLeg  -8.1065 7.63191 2.05886
LeftLeg  10.427 7.94875 -3.61721
LeftFoot  0.103305 -0.496632 4.94565
LeftToes  1.06248e-005 4.65856e-005 -8.185e-006
123
root  -63.1022 41.1342 0.902597 80.0992 -89.1377 -82.7463
RightUpLeg  -12.8237 -12.4651 -2.87389
RightLeg  23.9785 2.27053 0.892814
RightFoot  -3.62523 -0.487264 6.7513
RightToes  0.00048216 0.542163 -0.142577
Spine  9.64337 1.26995 1.14962
Spine1  1.7432 1.70126 -1.76212
HEad  -12.1934 1.24623 0.644066
LeftShoulder1  4.13022 -7.31244 -32.1131
LeftArm  -22.9331 16.3735 -13.7555
LeftForeArm  16.0076 -9.77913 -0.526605
LeftHand  -0.25398 0.0180481 5.50724
RightShoulder  4.21224 7.7043 31.6319
RightArm  -14.2319 -12.7886 20.9531
RightForeArm  -5.48448 16.8373 5.26879
RightHand  -1.59167 4.67193 -18.5653
LeftUpLeg  -7.14693 6.79317 1.73405
LeftLeg  9.69309 9.48864 -4.13305
LeftFoot  -0.283261 -0.49285 5.10437
LeftToes  1.06248e-005 4.65856e-005 -8.185e-006
124
root  -63.451 41.2199 1.09068 92.636 -89.323 -95.3155
RightUpLeg  -12.5422 -11.2675 -4.10735
RightLeg  23.3555 -1.47774 -0.894935
RightFoot  -5.30081 -0.269253 4.44256
RightToes  0.00048216 0.542163 -0.142577
Spine  9.6528 1.15346 1.40674
Spine1  1.14581 1.72212 -2.48108
HEad  -12.562 1.306 0.479928
LeftShoulder1  3.41715 -6.28436 -28.7937
LeftArm  -23.3049 14.9866 -11.0005
LeftForeArm  15.0144 -10.213 -0.528476
LeftHand  -0.25398 0.0180481 5.50724
RightShoulder  3.63438 6.90394 28.9341
RightArm  -16.8302 -12.6134 17.1728
RightForeArm  -8.31158 14.2735 5.33737
RightHand  -1.67403 4.83337 -19.1994
LeftUpLeg  -5.70468 6.14929 1.49881
LeftLeg  8.08427 10.1858 -4.58753
LeftFoot  -0.365168 -0.469337 4.90504
LeftToes  1.06248e-005 4.65856e-005 -8.185e-006
